<svg xmlns="http://www.w3.org/2000/svg" xmlns:xlink="http://www.w3.org/1999/xlink" width="500" zoomAndPan="magnify" viewBox="0 0 375 374.999991" height="500" preserveAspectRatio="xMidYMid meet" version="1.0"><defs><filter x="0%" y="0%" width="100%" height="100%" id="4d02a5e98c"><feColorMatrix values="0 0 0 0 1 0 0 0 0 1 0 0 0 0 1 0 0 0 1 0" color-interpolation-filters="sRGB"/></filter><mask id="66b4f90183"><g filter="url(#4d02a5e98c)"><rect x="-37.5" width="450" fill="#000000" y="-37.499999" height="449.999989" fill-opacity="0.098"/></g></mask><clipPath id="28aa5f9c80"><path d="M 122 167 L 133 167 L 133 178.761719 L 122 178.761719 Z M 122 167 " clip-rule="nonzero"/></clipPath><clipPath id="7d7b1949bb"><path d="M 216 29 L 227.839844 29 L 227.839844 40 L 216 40 Z M 216 29 " clip-rule="nonzero"/></clipPath><clipPath id="18f520843e"><path d="M 91 0.679688 L 102 0.679688 L 102 12 L 91 12 Z M 91 0.679688 " clip-rule="nonzero"/></clipPath><clipPath id="8737450fad"><rect x="0" width="228" y="0" height="179"/></clipPath><clipPath id="0ef3089984"><path d="M 5 24.484375 L 370 24.484375 L 370 350.734375 L 5 350.734375 Z M 5 24.484375 " clip-rule="nonzero"/></clipPath></defs><path fill="#f5b96e" d="M 187.59375 48.652344 C 126.214844 48.652344 69.042969 66.621094 21.019531 97.570312 C 10.09375 104.613281 7.558594 119.523438 15.417969 129.875 L 173.84375 338.570312 C 180.75 347.667969 194.429688 347.671875 201.335938 338.574219 C 232.558594 297.441406 309.976562 195.464844 359.769531 129.871094 C 367.628906 119.519531 365.089844 104.613281 354.164062 97.574219 C 306.144531 66.621094 248.96875 48.652344 187.59375 48.652344 Z M 187.59375 48.652344 " fill-opacity="1" fill-rule="nonzero"/><path fill="#000000" d="M 187.59375 48.652344 C 126.214844 48.652344 69.042969 66.621094 21.019531 97.570312 C 10.09375 104.613281 7.558594 119.523438 15.417969 129.875 L 173.84375 338.570312 C 180.75 347.667969 194.429688 347.671875 201.335938 338.574219 C 232.558594 297.441406 309.976562 195.464844 359.769531 129.871094 C 367.628906 119.519531 365.089844 104.613281 354.164062 97.574219 C 306.144531 66.621094 248.96875 48.652344 187.59375 48.652344 Z M 187.59375 48.652344 " fill-opacity="0.098" fill-rule="nonzero"/><path fill="#f9efd1" d="M 290.246094 55.328125 C 269.332031 55.328125 251.308594 67.664062 243.023438 85.449219 C 234.996094 80.390625 225.496094 77.453125 215.304688 77.453125 C 211.265625 77.453125 207.339844 77.925781 203.566406 78.796875 C 201.953125 51.480469 179.304688 29.824219 151.589844 29.824219 C 131.199219 29.824219 113.554688 41.550781 105.007812 58.625 C 99.324219 56.496094 93.175781 55.328125 86.753906 55.328125 C 57.992188 55.328125 34.675781 78.648438 34.675781 107.414062 C 34.675781 136.179688 57.988281 159.5 86.753906 159.5 C 107.140625 159.5 124.785156 147.773438 133.332031 130.699219 C 139.015625 132.828125 145.164062 133.996094 151.589844 133.996094 C 155.628906 133.996094 159.554688 133.523438 163.328125 132.652344 C 164.941406 159.96875 187.589844 181.625 215.304688 181.625 C 236.21875 181.625 254.242188 169.289062 262.527344 151.503906 C 270.554688 156.5625 280.054688 159.5 290.246094 159.5 C 319.007812 159.5 342.324219 136.179688 342.324219 107.414062 C 342.324219 78.648438 319.007812 55.328125 290.246094 55.328125 Z M 290.246094 55.328125 " fill-opacity="1" fill-rule="nonzero"/><path fill="#000000" d="M 187.59375 88.230469 C 133.410156 88.230469 82.976562 104.292969 40.789062 131.910156 C 49.554688 148.324219 66.847656 159.5 86.753906 159.5 C 107.144531 159.5 124.785156 147.773438 133.332031 130.699219 C 139.015625 132.824219 145.164062 133.996094 151.589844 133.996094 C 155.628906 133.996094 159.554688 133.519531 163.328125 132.652344 C 164.941406 159.96875 187.589844 181.625 215.304688 181.625 C 236.21875 181.625 254.242188 169.289062 262.527344 151.5 C 270.554688 156.5625 280.054688 159.5 290.246094 159.5 C 309.792969 159.5 326.820312 148.71875 335.726562 132.785156 C 293.269531 104.632812 242.347656 88.230469 187.59375 88.230469 Z M 187.59375 88.230469 " fill-opacity="0.0471" fill-rule="nonzero"/><path fill="#f5b96e" d="M 187.59375 99.0625 C 129.058594 99.0625 75.09375 118.605469 31.835938 151.503906 L 173.84375 338.566406 C 180.75 347.667969 194.429688 347.671875 201.339844 338.570312 C 229.304688 301.734375 294.3125 216.101562 343.347656 151.503906 C 300.09375 118.605469 246.128906 99.0625 187.59375 99.0625 Z M 187.59375 99.0625 " fill-opacity="1" fill-rule="nonzero"/><path fill="#e3637b" d="M 137.886719 196.742188 L 121.925781 196.742188 C 118.980469 196.742188 116.59375 194.355469 116.59375 191.410156 C 116.59375 188.460938 118.980469 186.074219 121.925781 186.074219 L 137.886719 186.074219 C 140.832031 186.074219 143.21875 188.460938 143.21875 191.410156 C 143.21875 194.355469 140.832031 196.742188 137.886719 196.742188 Z M 137.886719 196.742188 " fill-opacity="1" fill-rule="nonzero"/><path fill="#e3637b" d="M 253.257812 196.742188 L 237.300781 196.742188 C 234.351562 196.742188 231.964844 194.355469 231.964844 191.410156 C 231.964844 188.460938 234.355469 186.074219 237.300781 186.074219 L 253.257812 186.074219 C 256.203125 186.074219 258.589844 188.460938 258.589844 191.410156 C 258.589844 194.355469 256.203125 196.742188 253.257812 196.742188 Z M 253.257812 196.742188 " fill-opacity="1" fill-rule="nonzero"/><g mask="url(#66b4f90183)"><g transform="matrix(1, 0, 0, 1, 70, 115)"><g clip-path="url(#8737450fad)"><path fill="#000000" d="M 82.605469 137.492188 C 82.605469 137.828125 82.570312 138.164062 82.503906 138.496094 C 82.4375 138.828125 82.339844 139.152344 82.210938 139.464844 C 82.082031 139.777344 81.921875 140.074219 81.734375 140.355469 C 81.546875 140.636719 81.332031 140.894531 81.09375 141.136719 C 80.855469 141.375 80.59375 141.589844 80.3125 141.777344 C 80.03125 141.964844 79.734375 142.121094 79.421875 142.253906 C 79.109375 142.382812 78.789062 142.480469 78.457031 142.546875 C 78.125 142.613281 77.789062 142.644531 77.453125 142.644531 C 77.113281 142.644531 76.777344 142.613281 76.445312 142.546875 C 76.113281 142.480469 75.792969 142.382812 75.480469 142.253906 C 75.167969 142.121094 74.871094 141.964844 74.589844 141.777344 C 74.308594 141.589844 74.046875 141.375 73.808594 141.136719 C 73.570312 140.894531 73.355469 140.636719 73.167969 140.355469 C 72.980469 140.074219 72.820312 139.777344 72.691406 139.464844 C 72.5625 139.152344 72.464844 138.828125 72.398438 138.496094 C 72.332031 138.164062 72.300781 137.828125 72.300781 137.492188 C 72.300781 137.152344 72.332031 136.816406 72.398438 136.484375 C 72.464844 136.152344 72.5625 135.832031 72.691406 135.519531 C 72.820312 135.207031 72.980469 134.910156 73.167969 134.628906 C 73.355469 134.347656 73.570312 134.085938 73.808594 133.847656 C 74.046875 133.609375 74.308594 133.394531 74.589844 133.207031 C 74.871094 133.019531 75.167969 132.859375 75.480469 132.730469 C 75.792969 132.601562 76.113281 132.503906 76.445312 132.4375 C 76.777344 132.371094 77.113281 132.339844 77.453125 132.339844 C 77.789062 132.339844 78.125 132.371094 78.457031 132.4375 C 78.789062 132.503906 79.109375 132.601562 79.421875 132.730469 C 79.734375 132.859375 80.03125 133.019531 80.3125 133.207031 C 80.59375 133.394531 80.855469 133.609375 81.09375 133.847656 C 81.332031 134.085938 81.546875 134.347656 81.734375 134.628906 C 81.921875 134.910156 82.082031 135.207031 82.210938 135.519531 C 82.339844 135.832031 82.4375 136.152344 82.503906 136.484375 C 82.570312 136.816406 82.605469 137.152344 82.605469 137.492188 Z M 82.605469 137.492188 " fill-opacity="1" fill-rule="nonzero"/><g clip-path="url(#28aa5f9c80)"><path fill="#000000" d="M 132.433594 173.03125 C 132.433594 173.367188 132.398438 173.703125 132.332031 174.035156 C 132.269531 174.367188 132.171875 174.691406 132.039062 175.003906 C 131.910156 175.316406 131.753906 175.613281 131.5625 175.894531 C 131.375 176.175781 131.164062 176.433594 130.921875 176.675781 C 130.683594 176.914062 130.425781 177.128906 130.144531 177.316406 C 129.863281 177.503906 129.566406 177.660156 129.253906 177.792969 C 128.941406 177.921875 128.617188 178.019531 128.285156 178.085938 C 127.953125 178.152344 127.617188 178.183594 127.28125 178.183594 C 126.941406 178.183594 126.605469 178.152344 126.273438 178.085938 C 125.945312 178.019531 125.621094 177.921875 125.308594 177.792969 C 124.996094 177.660156 124.699219 177.503906 124.417969 177.316406 C 124.136719 177.128906 123.875 176.914062 123.636719 176.675781 C 123.398438 176.433594 123.183594 176.175781 122.996094 175.894531 C 122.808594 175.613281 122.648438 175.316406 122.519531 175.003906 C 122.390625 174.691406 122.292969 174.367188 122.226562 174.035156 C 122.160156 173.703125 122.128906 173.367188 122.128906 173.03125 C 122.128906 172.691406 122.160156 172.355469 122.226562 172.023438 C 122.292969 171.695312 122.390625 171.371094 122.519531 171.058594 C 122.648438 170.746094 122.808594 170.449219 122.996094 170.167969 C 123.183594 169.886719 123.398438 169.625 123.636719 169.386719 C 123.875 169.148438 124.136719 168.933594 124.417969 168.746094 C 124.699219 168.558594 124.996094 168.398438 125.308594 168.269531 C 125.621094 168.140625 125.945312 168.042969 126.273438 167.976562 C 126.605469 167.910156 126.941406 167.878906 127.28125 167.878906 C 127.617188 167.878906 127.953125 167.910156 128.285156 167.976562 C 128.617188 168.042969 128.941406 168.140625 129.253906 168.269531 C 129.566406 168.398438 129.863281 168.558594 130.144531 168.746094 C 130.425781 168.933594 130.683594 169.148438 130.921875 169.386719 C 131.164062 169.625 131.375 169.886719 131.5625 170.167969 C 131.753906 170.449219 131.910156 170.746094 132.039062 171.058594 C 132.171875 171.371094 132.269531 171.695312 132.332031 172.023438 C 132.398438 172.355469 132.433594 172.691406 132.433594 173.03125 Z M 132.433594 173.03125 " fill-opacity="1" fill-rule="nonzero"/></g><path fill="#000000" d="M 160.128906 111.742188 C 160.128906 112.078125 160.09375 112.414062 160.027344 112.746094 C 159.964844 113.078125 159.867188 113.398438 159.734375 113.710938 C 159.605469 114.023438 159.449219 114.320312 159.257812 114.601562 C 159.070312 114.882812 158.859375 115.144531 158.617188 115.382812 C 158.378906 115.625 158.121094 115.835938 157.839844 116.023438 C 157.558594 116.214844 157.261719 116.371094 156.949219 116.5 C 156.636719 116.628906 156.3125 116.726562 155.980469 116.792969 C 155.648438 116.859375 155.3125 116.894531 154.976562 116.894531 C 154.636719 116.894531 154.300781 116.859375 153.972656 116.792969 C 153.640625 116.726562 153.316406 116.628906 153.003906 116.5 C 152.691406 116.371094 152.394531 116.214844 152.113281 116.023438 C 151.832031 115.835938 151.570312 115.625 151.332031 115.382812 C 151.09375 115.144531 150.878906 114.882812 150.691406 114.601562 C 150.503906 114.320312 150.34375 114.023438 150.214844 113.710938 C 150.085938 113.398438 149.988281 113.078125 149.921875 112.746094 C 149.855469 112.414062 149.824219 112.078125 149.824219 111.742188 C 149.824219 111.402344 149.855469 111.066406 149.921875 110.734375 C 149.988281 110.402344 150.085938 110.082031 150.214844 109.769531 C 150.34375 109.457031 150.503906 109.160156 150.691406 108.878906 C 150.878906 108.597656 151.09375 108.335938 151.332031 108.097656 C 151.570312 107.855469 151.832031 107.644531 152.113281 107.457031 C 152.394531 107.269531 152.691406 107.109375 153.003906 106.980469 C 153.316406 106.851562 153.640625 106.753906 153.972656 106.6875 C 154.300781 106.621094 154.636719 106.585938 154.976562 106.585938 C 155.3125 106.585938 155.648438 106.621094 155.980469 106.6875 C 156.3125 106.753906 156.636719 106.851562 156.949219 106.980469 C 157.261719 107.109375 157.558594 107.269531 157.839844 107.457031 C 158.121094 107.644531 158.378906 107.855469 158.617188 108.097656 C 158.859375 108.335938 159.070312 108.597656 159.257812 108.878906 C 159.449219 109.160156 159.605469 109.457031 159.734375 109.769531 C 159.867188 110.082031 159.964844 110.402344 160.027344 110.734375 C 160.09375 111.066406 160.128906 111.402344 160.128906 111.742188 Z M 160.128906 111.742188 " fill-opacity="1" fill-rule="nonzero"/><g clip-path="url(#7d7b1949bb)"><path fill="#000000" d="M 227.15625 34.332031 C 227.15625 34.667969 227.121094 35.003906 227.054688 35.335938 C 226.988281 35.667969 226.890625 35.992188 226.761719 36.304688 C 226.632812 36.617188 226.472656 36.914062 226.285156 37.195312 C 226.097656 37.476562 225.882812 37.734375 225.644531 37.976562 C 225.40625 38.214844 225.144531 38.425781 224.863281 38.617188 C 224.582031 38.804688 224.285156 38.960938 223.972656 39.089844 C 223.660156 39.222656 223.339844 39.320312 223.007812 39.386719 C 222.675781 39.449219 222.339844 39.484375 222.003906 39.484375 C 221.664062 39.484375 221.328125 39.449219 220.996094 39.386719 C 220.664062 39.320312 220.34375 39.222656 220.03125 39.089844 C 219.71875 38.960938 219.421875 38.804688 219.140625 38.617188 C 218.859375 38.425781 218.597656 38.214844 218.359375 37.976562 C 218.121094 37.734375 217.90625 37.476562 217.71875 37.195312 C 217.53125 36.914062 217.371094 36.617188 217.242188 36.304688 C 217.113281 35.992188 217.015625 35.667969 216.949219 35.335938 C 216.882812 35.003906 216.851562 34.667969 216.851562 34.332031 C 216.851562 33.992188 216.882812 33.65625 216.949219 33.324219 C 217.015625 32.992188 217.113281 32.671875 217.242188 32.359375 C 217.371094 32.046875 217.53125 31.75 217.71875 31.46875 C 217.90625 31.1875 218.121094 30.925781 218.359375 30.6875 C 218.597656 30.449219 218.859375 30.234375 219.140625 30.046875 C 219.421875 29.859375 219.71875 29.699219 220.03125 29.570312 C 220.34375 29.441406 220.664062 29.34375 220.996094 29.277344 C 221.328125 29.210938 221.664062 29.179688 222.003906 29.179688 C 222.339844 29.179688 222.675781 29.210938 223.007812 29.277344 C 223.339844 29.34375 223.660156 29.441406 223.972656 29.570312 C 224.285156 29.699219 224.582031 29.859375 224.863281 30.046875 C 225.144531 30.234375 225.40625 30.449219 225.644531 30.6875 C 225.882812 30.925781 226.097656 31.1875 226.285156 31.46875 C 226.472656 31.75 226.632812 32.046875 226.761719 32.359375 C 226.890625 32.671875 226.988281 32.992188 227.054688 33.324219 C 227.121094 33.65625 227.15625 33.992188 227.15625 34.332031 Z M 227.15625 34.332031 " fill-opacity="1" fill-rule="nonzero"/></g><g clip-path="url(#18f520843e)"><path fill="#000000" d="M 101.566406 5.933594 C 101.566406 6.273438 101.53125 6.605469 101.464844 6.9375 C 101.398438 7.269531 101.300781 7.59375 101.171875 7.90625 C 101.042969 8.21875 100.886719 8.515625 100.695312 8.796875 C 100.507812 9.078125 100.296875 9.339844 100.054688 9.578125 C 99.816406 9.816406 99.558594 10.03125 99.277344 10.21875 C 98.992188 10.40625 98.695312 10.566406 98.382812 10.695312 C 98.070312 10.824219 97.75 10.921875 97.417969 10.988281 C 97.085938 11.054688 96.75 11.085938 96.414062 11.085938 C 96.074219 11.085938 95.738281 11.054688 95.40625 10.988281 C 95.074219 10.921875 94.753906 10.824219 94.441406 10.695312 C 94.128906 10.566406 93.832031 10.40625 93.550781 10.21875 C 93.269531 10.03125 93.007812 9.816406 92.769531 9.578125 C 92.53125 9.339844 92.316406 9.078125 92.128906 8.796875 C 91.941406 8.515625 91.78125 8.21875 91.652344 7.90625 C 91.523438 7.59375 91.425781 7.269531 91.359375 6.9375 C 91.292969 6.605469 91.261719 6.273438 91.261719 5.933594 C 91.261719 5.59375 91.292969 5.261719 91.359375 4.929688 C 91.425781 4.597656 91.523438 4.273438 91.652344 3.960938 C 91.78125 3.648438 91.941406 3.351562 92.128906 3.070312 C 92.316406 2.789062 92.53125 2.527344 92.769531 2.289062 C 93.007812 2.050781 93.269531 1.835938 93.550781 1.648438 C 93.832031 1.460938 94.128906 1.300781 94.441406 1.171875 C 94.753906 1.042969 95.074219 0.945312 95.40625 0.878906 C 95.738281 0.8125 96.074219 0.78125 96.414062 0.78125 C 96.75 0.78125 97.085938 0.8125 97.417969 0.878906 C 97.75 0.945312 98.070312 1.042969 98.382812 1.171875 C 98.695312 1.300781 98.992188 1.460938 99.277344 1.648438 C 99.558594 1.835938 99.816406 2.050781 100.054688 2.289062 C 100.296875 2.527344 100.507812 2.789062 100.695312 3.070312 C 100.886719 3.351562 101.042969 3.648438 101.171875 3.960938 C 101.300781 4.273438 101.398438 4.597656 101.464844 4.929688 C 101.53125 5.261719 101.566406 5.59375 101.566406 5.933594 Z M 101.566406 5.933594 " fill-opacity="1" fill-rule="nonzero"/></g><path fill="#000000" d="M 11.785156 46.195312 C 11.785156 46.535156 11.753906 46.871094 11.6875 47.203125 C 11.621094 47.535156 11.523438 47.855469 11.394531 48.167969 C 11.265625 48.480469 11.105469 48.777344 10.917969 49.058594 C 10.730469 49.339844 10.515625 49.601562 10.277344 49.839844 C 10.039062 50.078125 9.777344 50.292969 9.496094 50.480469 C 9.214844 50.667969 8.917969 50.828125 8.605469 50.957031 C 8.292969 51.085938 7.972656 51.183594 7.640625 51.25 C 7.308594 51.316406 6.972656 51.347656 6.632812 51.347656 C 6.296875 51.347656 5.960938 51.316406 5.628906 51.25 C 5.296875 51.183594 4.976562 51.085938 4.664062 50.957031 C 4.351562 50.828125 4.054688 50.667969 3.773438 50.480469 C 3.492188 50.292969 3.230469 50.078125 2.992188 49.839844 C 2.75 49.601562 2.539062 49.339844 2.351562 49.058594 C 2.164062 48.777344 2.003906 48.480469 1.875 48.167969 C 1.746094 47.855469 1.648438 47.535156 1.582031 47.203125 C 1.515625 46.871094 1.480469 46.535156 1.480469 46.195312 C 1.480469 45.859375 1.515625 45.523438 1.582031 45.191406 C 1.648438 44.859375 1.746094 44.535156 1.875 44.222656 C 2.003906 43.910156 2.164062 43.613281 2.351562 43.332031 C 2.539062 43.050781 2.75 42.792969 2.992188 42.550781 C 3.230469 42.3125 3.492188 42.101562 3.773438 41.910156 C 4.054688 41.722656 4.351562 41.566406 4.664062 41.433594 C 4.976562 41.304688 5.296875 41.207031 5.628906 41.140625 C 5.960938 41.078125 6.296875 41.042969 6.632812 41.042969 C 6.972656 41.042969 7.308594 41.078125 7.640625 41.140625 C 7.972656 41.207031 8.292969 41.304688 8.605469 41.433594 C 8.917969 41.566406 9.214844 41.722656 9.496094 41.910156 C 9.777344 42.101562 10.039062 42.3125 10.277344 42.550781 C 10.515625 42.792969 10.730469 43.050781 10.917969 43.332031 C 11.105469 43.613281 11.265625 43.910156 11.394531 44.222656 C 11.523438 44.535156 11.621094 44.859375 11.6875 45.191406 C 11.753906 45.523438 11.785156 45.859375 11.785156 46.195312 Z M 11.785156 46.195312 " fill-opacity="1" fill-rule="nonzero"/></g></g></g><g clip-path="url(#0ef3089984)"><path fill="#000000" d="M 369.25 111.472656 C 367.921875 103.925781 363.476562 97.226562 357.054688 93.089844 C 352.515625 90.164062 347.746094 87.277344 342.871094 84.492188 C 334.003906 64.207031 313.757812 49.992188 290.246094 49.992188 C 282.898438 49.992188 275.746094 51.421875 269.125 54.058594 C 244.773438 47.511719 219.578125 43.929688 194.160156 43.40625 C 183.621094 31.765625 168.398438 24.488281 151.589844 24.488281 C 131.269531 24.488281 112.847656 34.988281 102.472656 52.179688 C 97.375 50.726562 92.105469 49.992188 86.75 49.992188 C 63.777344 49.992188 43.921875 63.5625 34.753906 83.105469 C 29.089844 86.28125 23.503906 89.625 18.132812 93.089844 C 11.710938 97.226562 7.265625 103.929688 5.9375 111.472656 C 4.597656 119.074219 6.503906 126.957031 11.171875 133.105469 L 27.589844 154.730469 L 169.59375 341.792969 C 173.90625 347.472656 180.464844 350.730469 187.59375 350.730469 C 194.722656 350.730469 201.277344 347.472656 205.589844 341.796875 L 347.597656 154.730469 L 364.019531 133.097656 C 368.683594 126.953125 370.589844 119.070312 369.25 111.472656 Z M 255.59375 61.683594 C 249.738281 66.117188 244.707031 71.675781 240.867188 78.125 C 230.863281 73.140625 219.503906 71.152344 208.234375 72.558594 C 207.164062 66.039062 204.992188 59.90625 201.933594 54.335938 C 220.058594 55.1875 238.023438 57.648438 255.59375 61.683594 Z M 32.890625 144.066406 L 19.667969 126.652344 C 16.75 122.808594 15.605469 118.078125 16.445312 113.324219 C 17.273438 108.628906 19.921875 104.628906 23.910156 102.058594 C 25.9375 100.75 28.007812 99.464844 30.089844 98.195312 C 29.601562 101.199219 29.339844 104.273438 29.339844 107.414062 C 29.339844 118.914062 32.824219 130.136719 39.226562 139.597656 C 37.097656 141.058594 34.980469 142.539062 32.890625 144.066406 Z M 197.089844 335.34375 C 194.816406 338.339844 191.355469 340.058594 187.59375 340.058594 C 183.832031 340.058594 180.367188 338.339844 178.089844 335.339844 L 39.339844 152.566406 C 82.625 121.03125 133.761719 104.398438 187.59375 104.398438 C 241.421875 104.398438 292.5625 121.03125 335.84375 152.566406 Z M 328.304688 134.527344 C 286.28125 107.769531 238.070312 93.726562 187.59375 93.726562 C 137.617188 93.726562 89.867188 107.5 48.140625 133.738281 C 42.875 126.011719 40.007812 116.828125 40.007812 107.414062 C 40.007812 81.632812 60.976562 60.664062 86.753906 60.664062 C 92.378906 60.664062 97.890625 61.65625 103.136719 63.621094 C 105.695312 64.582031 108.558594 63.453125 109.777344 61.015625 C 117.761719 45.066406 133.785156 35.160156 151.589844 35.160156 C 176.296875 35.160156 196.789062 54.464844 198.242188 79.113281 C 198.335938 80.679688 199.113281 82.128906 200.371094 83.070312 C 201.628906 84.011719 203.234375 84.347656 204.765625 83.996094 C 208.246094 83.195312 211.792969 82.789062 215.308594 82.789062 C 224.128906 82.789062 232.730469 85.269531 240.179688 89.964844 C 241.476562 90.78125 243.0625 91.003906 244.53125 90.570312 C 246 90.136719 247.214844 89.09375 247.859375 87.703125 C 255.511719 71.277344 272.148438 60.664062 290.246094 60.664062 C 316.019531 60.664062 336.988281 81.636719 336.988281 107.414062 C 336.988281 117.171875 333.925781 126.640625 328.304688 134.527344 Z M 355.519531 126.648438 L 342.296875 144.066406 C 340.605469 142.832031 338.898438 141.625 337.183594 140.4375 C 343.964844 130.804688 347.65625 119.285156 347.65625 107.414062 C 347.65625 104.699219 347.453125 102.03125 347.089844 99.414062 C 348.503906 100.292969 349.902344 101.171875 351.277344 102.058594 C 355.265625 104.628906 357.914062 108.632812 358.742188 113.324219 C 359.582031 118.074219 358.4375 122.804688 355.519531 126.648438 Z M 129.90625 157.417969 C 126.960938 157.417969 124.570312 159.804688 124.570312 162.75 L 124.570312 172.894531 C 124.570312 175.839844 126.960938 178.230469 129.90625 178.230469 C 132.851562 178.230469 135.242188 175.839844 135.242188 172.894531 L 135.242188 162.75 C 135.242188 159.804688 132.851562 157.417969 129.90625 157.417969 Z M 245.277344 178.230469 C 248.226562 178.230469 250.613281 175.84375 250.613281 172.894531 L 250.613281 162.753906 C 250.613281 159.804688 248.222656 157.417969 245.277344 157.417969 C 242.332031 157.417969 239.945312 159.804688 239.945312 162.753906 L 239.945312 172.894531 C 239.941406 175.839844 242.332031 178.230469 245.277344 178.230469 Z M 182.257812 172.894531 C 182.257812 175.089844 180.472656 176.875 178.277344 176.875 C 176.082031 176.875 174.292969 175.089844 174.292969 172.894531 C 174.292969 169.949219 171.90625 167.558594 168.960938 167.558594 C 166.011719 167.558594 163.625 169.949219 163.625 172.894531 C 163.625 180.972656 170.199219 187.546875 178.277344 187.546875 C 181.8125 187.546875 185.058594 186.289062 187.59375 184.195312 C 190.125 186.289062 193.371094 187.546875 196.910156 187.546875 C 204.988281 187.546875 211.558594 180.972656 211.558594 172.894531 C 211.558594 169.949219 209.171875 167.558594 206.222656 167.558594 C 203.277344 167.558594 200.890625 169.949219 200.890625 172.894531 C 200.890625 175.089844 199.105469 176.875 196.910156 176.875 C 194.714844 176.875 192.925781 175.089844 192.925781 172.894531 C 192.925781 169.949219 190.539062 167.558594 187.59375 167.558594 C 184.644531 167.558594 182.257812 169.949219 182.257812 172.894531 Z M 182.257812 172.894531 " fill-opacity="1" fill-rule="nonzero"/></g></svg>